Coordinates
version=1
nRows=7
nColumns=33
inDegrees=yes

Units are S.I. units (second, meters, Newtons, ...)
Angles are in degrees.

endheader
time	ground_thorax_rot_x	ground_thorax_rot_y	ground_thorax_rot_z	ground_thorax_tx	ground_thorax_ty	ground_thorax_tz	clav_prot_r	clav_elev_r	scapula_abduction_r	scapula_elevation_r	scapula_upward_rot_r	scapula_winging_r	shoulder_elv_r	plane_of_elev_r	axial_rot_r	elbow_flexion_r	pro_sup_r	wrist_flex_r	wrist_dev_r	clav_prot_l	clav_elev_l	scapula_abduction_l	scapula_elevation_l	scapula_upward_rot_l	scapula_winging_l	shoulder_elv_l	plane_of_elev_l	axial_rot_l	elbow_flexion_l	pro_sup_l	wrist_flex_l	wrist_dev_l
      6.86000000	    -32.98026681	    -22.92897601	     28.74141824	   -107.48329796	    842.77628676	    -47.60348636	     26.29200979	    -45.00000000	     37.98435533	    -45.00000000	    -45.00000000	   1691.36058315	   4755.72976166	     20.18065241	   -143.89155703	   2518.12251556	    155.38138369	     14.78907250	     14.53967568	     -1.63629911	     32.25526998	    -29.56964714	    -45.00000000	    -45.00000000	   3326.49317769	  -3883.52525047	     27.55109462	     51.69160658	   1069.81446649	     41.47913710	     11.88090851	    -22.59577856
      6.87000000	    -32.95432969	    -23.03926471	     28.85561153	   -107.24465486	    842.45601796	    -47.54787317	     26.29227208	    -45.00000000	     38.04574085	    -45.00000000	    -45.00000000	   1691.33401787	   4755.71411218	     20.11160192	   -143.77688994	   2518.10792320	    155.03967858	     14.97307183	     14.51050685	     -1.75792682	     32.32707769	    -29.48805664	    -45.00000000	    -45.00000000	   3326.36539048	  -3883.45237528	     27.44925743	     51.52107667	   1069.73668195	     41.67354130	     11.66404378	    -22.97810933
      6.88000000	    -32.92199541	    -23.11920096	     28.95962521	   -106.97653073	    842.13854878	    -47.51956942	     26.33649422	    -45.00000000	     38.01319112	    -45.00000000	    -45.00000000	   1691.34711478	   4755.74181768	     20.13627530	   -143.76281078	   2518.08273561	    154.83431646	     14.89715070	     14.39679700	     -1.70500609	     32.25153556	    -29.50145941	    -45.00000000	    -45.00000000	   3326.41538750	  -3883.51339163	     27.47179037	     51.40858956	   1069.83977970	     41.96845755	     11.58233028	    -22.85148297
      6.89000000	    -32.89515784	    -23.15309925	     28.98222952	   -106.68021021	    841.83356512	    -47.52376753	     26.32401158	    -45.00000000	     38.04870746	    -45.00000000	    -45.00000000	   1691.38374994	   4755.73634317	     20.13019464	   -143.75856411	   2518.07932153	    154.66693634	     15.05021823	     14.44469878	     -1.76166127	     32.34464304	    -29.48448908	    -45.00000000	    -45.00000000	   3326.36003730	  -3883.51290935	     27.42388902	     51.29974018	   1069.85719743	     42.20573099	     11.42811758	    -23.25855507
      6.90000000	    -32.88714826	    -23.23418609	     29.05820840	   -106.35707501	    841.55008212	    -47.56200015	     26.35415560	    -45.00000000	     38.06651767	    -45.00000000	    -45.00000000	   1691.38172975	   4755.74648196	     20.13641620	   -143.79581016	   2518.03496264	    154.59343232	     14.93985057	     14.32559350	     -1.68849838	     32.22858475	    -29.50576337	    -45.00000000	    -45.00000000	   3326.40055933	  -3883.56180989	     27.45242353	     51.20134148	   1069.96586194	     42.54240694	     11.35920301	    -23.03910946
      6.91000000	    -32.89271435	    -23.26758465	     29.06670064	   -106.01040693	    841.29559733	    -47.63181353	     26.36077462	    -45.00000000	     38.07614979	    -45.00000000	    -45.00000000	   1691.44627261	   4755.76351681	     20.13078872	   -143.83437612	   2518.10690069	    154.51186787	     15.18291810	     14.39611477	     -1.76881568	     32.40425787	    -29.50857582	    -45.00000000	    -45.00000000	   3326.34264569	  -3883.53877684	     27.38119458	     51.10356827	   1069.98257313	     42.76669383	     11.23278999	    -23.57814425
      6.92000000	    -32.86468507	    -23.38295240	     29.18446099	   -105.64393568	    841.07507890	    -47.72655675	     26.37885559	    -45.00000000	     38.11640114	    -45.00000000	    -45.00000000	   1691.42478198	   4755.75747575	     20.14472013	   -143.93222286	   2518.01385740	    154.54496391	     14.89181522	     14.21583965	     -1.58988743	     32.10563708	    -29.53917632	    -45.00000000	    -45.00000000	   3326.47020356	  -3883.61043667	     27.46425100	     51.03169546	   1070.12299513	     43.13644459	     11.18951411	    -23.04103302
